<svg width="20" height="20" viewBox="0 0 20 20" fill="none" xmlns="http://www.w3.org/2000/svg">
<path d="M7.50008 2.9165V1.6665M4.2173 4.21705L3.33341 3.33317M4.2173 10.8332L3.33341 11.7171M10.8334 4.21705L11.7173 3.33317M2.91675 7.49984H1.66675M13.2205 13.4911L11.144 17.3474C10.9068 17.7879 10.7882 18.0082 10.6455 18.0639C10.5217 18.1122 10.3822 18.0986 10.2701 18.0271C10.1409 17.9448 10.0672 17.7057 9.91993 17.2276L7.03774 7.87088C6.91741 7.48026 6.85725 7.28495 6.90566 7.15303C6.94783 7.03813 7.03838 6.94758 7.15328 6.90542C7.28519 6.85701 7.4805 6.91717 7.87112 7.0375L17.2278 9.91971C17.7059 10.067 17.945 10.1407 18.0274 10.2699C18.0988 10.382 18.1124 10.5214 18.0641 10.6453C18.0084 10.788 17.7881 10.9066 17.3476 11.1438L13.4914 13.2202C13.4259 13.2555 13.3932 13.2731 13.3645 13.2958C13.3391 13.3159 13.3161 13.3389 13.296 13.3643C13.2734 13.393 13.2557 13.4257 13.2205 13.4911Z" stroke="white" stroke-width="1.5" stroke-linecap="round" stroke-linejoin="round"/>
</svg>
