<svg width="1440" height="700" viewBox="0 0 1440 700" fill="none" xmlns="http://www.w3.org/2000/svg">
<rect opacity="0.1" x="-30" width="100" height="100" rx="16" fill="#1F1F22" stroke="#A855F7"/>
<rect opacity="0.1" x="-30" y="100" width="100" height="100" rx="16" fill="#1F1F22" stroke="#A855F7"/>
<rect opacity="0.1" x="-30" y="200" width="100" height="100" rx="16" fill="#1F1F22" stroke="#A855F7"/>
<rect opacity="0.1" x="-30" y="300" width="100" height="100" rx="16" fill="#1F1F22" stroke="#A855F7"/>
<rect opacity="0.1" x="-30" y="400" width="100" height="100" rx="16" fill="#1F1F22" stroke="#A855F7"/>
<rect opacity="0.1" x="-30" y="500" width="100" height="100" rx="16" fill="#1F1F22" stroke="#A855F7"/>
<rect opacity="0.1" x="-30" y="600" width="100" height="100" rx="16" fill="#1F1F22" stroke="#A855F7"/>
<rect opacity="0.1" x="70" width="100" height="100" rx="16" fill="#1F1F22" stroke="#A855F7"/>
<rect opacity="0.1" x="70" y="100" width="100" height="100" rx="16" fill="#1F1F22" stroke="#A855F7"/>
<rect opacity="0.1" x="70" y="200" width="100" height="100" rx="16" fill="#1F1F22" stroke="#A855F7"/>
<rect opacity="0.1" x="70" y="300" width="100" height="100" rx="16" fill="#1F1F22" stroke="#A855F7"/>
<rect opacity="0.1" x="70" y="400" width="100" height="100" rx="16" fill="#1F1F22" stroke="#A855F7"/>
<rect opacity="0.1" x="70" y="500" width="100" height="100" rx="16" fill="#1F1F22" stroke="#A855F7"/>
<rect opacity="0.1" x="70" y="600" width="100" height="100" rx="16" fill="#1F1F22" stroke="#A855F7"/>
<rect opacity="0.1" x="170" width="100" height="100" rx="16" fill="#1F1F22" stroke="#A855F7"/>
<rect opacity="0.1" x="170" y="100" width="100" height="100" rx="16" fill="#1F1F22" stroke="#A855F7"/>
<rect opacity="0.1" x="170" y="200" width="100" height="100" rx="16" fill="#1F1F22" stroke="#A855F7"/>
<rect opacity="0.1" x="170" y="300" width="100" height="100" rx="16" fill="#1F1F22" stroke="#A855F7"/>
<g opacity="0.35">
<rect x="170" y="400" width="100" height="100" rx="16" fill="url(#paint0_radial_3644_55096)"/>
<rect x="170.5" y="400.5" width="99" height="99" rx="15.5" stroke="#A855F7" stroke-opacity="0.65"/>
</g>
<rect opacity="0.1" x="170" y="500" width="100" height="100" rx="16" fill="#1F1F22" stroke="#A855F7"/>
<rect opacity="0.1" x="170" y="600" width="100" height="100" rx="16" fill="#1F1F22" stroke="#A855F7"/>
<rect opacity="0.1" x="270" width="100" height="100" rx="16" fill="#1F1F22" stroke="#A855F7"/>
<rect opacity="0.1" x="270" y="100" width="100" height="100" rx="16" fill="#1F1F22" stroke="#A855F7"/>
<rect opacity="0.1" x="270" y="200" width="100" height="100" rx="16" fill="#1F1F22" stroke="#A855F7"/>
<rect opacity="0.1" x="270" y="300" width="100" height="100" rx="16" fill="#1F1F22" stroke="#A855F7"/>
<rect opacity="0.1" x="270" y="400" width="100" height="100" rx="16" fill="#1F1F22" stroke="#A855F7"/>
<rect opacity="0.1" x="270" y="500" width="100" height="100" rx="16" fill="#1F1F22" stroke="#A855F7"/>
<rect opacity="0.1" x="270" y="600" width="100" height="100" rx="16" fill="#1F1F22" stroke="#A855F7"/>
<rect opacity="0.1" x="370" width="100" height="100" rx="16" fill="#1F1F22" stroke="#A855F7"/>
<rect opacity="0.1" x="370" y="100" width="100" height="100" rx="16" fill="#1F1F22" stroke="#A855F7"/>
<rect opacity="0.1" x="370" y="200" width="100" height="100" rx="16" fill="#1F1F22" stroke="#A855F7"/>
<rect opacity="0.1" x="370" y="300" width="100" height="100" rx="16" fill="#1F1F22" stroke="#A855F7"/>
<rect opacity="0.1" x="370" y="400" width="100" height="100" rx="16" fill="#1F1F22" stroke="#A855F7"/>
<rect opacity="0.1" x="370" y="500" width="100" height="100" rx="16" fill="#1F1F22" stroke="#A855F7"/>
<rect opacity="0.1" x="370" y="600" width="100" height="100" rx="16" fill="#1F1F22" stroke="#A855F7"/>
<rect opacity="0.1" x="470" width="100" height="100" rx="16" fill="#1F1F22" stroke="#A855F7"/>
<rect opacity="0.1" x="470" y="100" width="100" height="100" rx="16" fill="#1F1F22" stroke="#A855F7"/>
<rect opacity="0.1" x="470" y="200" width="100" height="100" rx="16" fill="#1F1F22" stroke="#A855F7"/>
<rect opacity="0.1" x="470" y="300" width="100" height="100" rx="16" fill="#1F1F22" stroke="#A855F7"/>
<rect opacity="0.1" x="470" y="400" width="100" height="100" rx="16" fill="#1F1F22" stroke="#A855F7"/>
<rect opacity="0.1" x="470" y="500" width="100" height="100" rx="16" fill="#1F1F22" stroke="#A855F7"/>
<rect opacity="0.1" x="470" y="600" width="100" height="100" rx="16" fill="#1F1F22" stroke="#A855F7"/>
<g opacity="0.35">
<rect x="570" width="100" height="100" rx="16" fill="url(#paint1_radial_3644_55096)"/>
<rect x="570.5" y="0.5" width="99" height="99" rx="15.5" stroke="#A855F7" stroke-opacity="0.65"/>
</g>
<rect opacity="0.1" x="570.5" y="100.5" width="99" height="99" rx="15.5" fill="#1F1F22" stroke="#A855F7"/>
<rect opacity="0.1" x="570" y="200" width="100" height="100" rx="16" fill="#1F1F22" stroke="#A855F7"/>
<rect opacity="0.1" x="570" y="300" width="100" height="100" rx="16" fill="#1F1F22" stroke="#A855F7"/>
<rect opacity="0.1" x="570" y="400" width="100" height="100" rx="16" fill="#1F1F22" stroke="#A855F7"/>
<rect opacity="0.1" x="570" y="500" width="100" height="100" rx="16" fill="#1F1F22" stroke="#A855F7"/>
<rect opacity="0.1" x="570" y="600" width="100" height="100" rx="16" fill="#1F1F22" stroke="#A855F7"/>
<rect opacity="0.1" x="670.5" y="0.5" width="99" height="99" rx="15.5" fill="#1F1F22" stroke="#A855F7"/>
<rect opacity="0.1" x="670" y="100" width="100" height="100" rx="16" fill="#1F1F22" stroke="#A855F7"/>
<rect opacity="0.1" x="670" y="200" width="100" height="100" rx="16" fill="#1F1F22" stroke="#A855F7"/>
<rect opacity="0.1" x="670" y="300" width="100" height="100" rx="16" fill="#1F1F22" stroke="#A855F7"/>
<rect opacity="0.1" x="670" y="400" width="100" height="100" rx="16" fill="#1F1F22" stroke="#A855F7"/>
<rect opacity="0.1" x="670" y="500" width="100" height="100" rx="16" fill="#1F1F22" stroke="#A855F7"/>
<rect opacity="0.1" x="670" y="600" width="100" height="100" rx="16" fill="#1F1F22" stroke="#A855F7"/>
<rect opacity="0.1" x="770" width="100" height="100" rx="16" fill="#1F1F22" stroke="#A855F7"/>
<rect opacity="0.1" x="770" y="100" width="100" height="100" rx="16" fill="#1F1F22" stroke="#A855F7"/>
<rect opacity="0.1" x="770" y="200" width="100" height="100" rx="16" fill="#1F1F22" stroke="#A855F7"/>
<rect opacity="0.1" x="770" y="300" width="100" height="100" rx="16" fill="#1F1F22" stroke="#A855F7"/>
<rect opacity="0.1" x="770" y="400" width="100" height="100" rx="16" fill="#1F1F22" stroke="#A855F7"/>
<rect opacity="0.1" x="770" y="500" width="100" height="100" rx="16" fill="#1F1F22" stroke="#A855F7"/>
<rect opacity="0.1" x="770" y="600" width="100" height="100" rx="16" fill="#1F1F22" stroke="#A855F7"/>
<rect opacity="0.1" x="870" width="100" height="100" rx="16" fill="#1F1F22" stroke="#A855F7"/>
<rect opacity="0.1" x="870" y="100" width="100" height="100" rx="16" fill="#1F1F22" stroke="#A855F7"/>
<rect opacity="0.1" x="870" y="200" width="100" height="100" rx="16" fill="#1F1F22" stroke="#A855F7"/>
<rect opacity="0.1" x="870" y="300" width="100" height="100" rx="16" fill="#1F1F22" stroke="#A855F7"/>
<rect opacity="0.1" x="870" y="400" width="100" height="100" rx="16" fill="#1F1F22" stroke="#A855F7"/>
<rect opacity="0.1" x="870" y="500" width="100" height="100" rx="16" fill="#1F1F22" stroke="#A855F7"/>
<rect opacity="0.1" x="870" y="600" width="100" height="100" rx="16" fill="#1F1F22" stroke="#A855F7"/>
<rect opacity="0.1" x="970" width="100" height="100" rx="16" fill="#1F1F22" stroke="#A855F7"/>
<rect opacity="0.1" x="970" y="100" width="100" height="100" rx="16" fill="#1F1F22" stroke="#A855F7"/>
<rect opacity="0.1" x="970" y="200" width="100" height="100" rx="16" fill="#1F1F22" stroke="#A855F7"/>
<rect opacity="0.1" x="970" y="300" width="100" height="100" rx="16" fill="#1F1F22" stroke="#A855F7"/>
<rect opacity="0.1" x="970" y="400" width="100" height="100" rx="16" fill="#1F1F22" stroke="#A855F7"/>
<rect opacity="0.1" x="970" y="500" width="100" height="100" rx="16" fill="#1F1F22" stroke="#A855F7"/>
<rect opacity="0.1" x="970" y="600" width="100" height="100" rx="16" fill="#1F1F22" stroke="#A855F7"/>
<g opacity="0.35">
<rect x="1070" width="100" height="100" rx="16" fill="url(#paint2_radial_3644_55096)"/>
<rect x="1070.5" y="0.5" width="99" height="99" rx="15.5" stroke="#A855F7" stroke-opacity="0.65"/>
</g>
<rect opacity="0.1" x="1070" y="100" width="100" height="100" rx="16" fill="#1F1F22" stroke="#A855F7"/>
<rect opacity="0.1" x="1070" y="200" width="100" height="100" rx="16" fill="#1F1F22" stroke="#A855F7"/>
<rect opacity="0.1" x="1070" y="300" width="100" height="100" rx="16" fill="#1F1F22" stroke="#A855F7"/>
<rect opacity="0.1" x="1070" y="400" width="100" height="100" rx="16" fill="#1F1F22" stroke="#A855F7"/>
<rect opacity="0.1" x="1070" y="500" width="100" height="100" rx="16" fill="#1F1F22" stroke="#A855F7"/>
<rect opacity="0.1" x="1070" y="600" width="100" height="100" rx="16" fill="#1F1F22" stroke="#A855F7"/>
<rect opacity="0.1" x="1170" width="100" height="100" rx="16" fill="#1F1F22" stroke="#A855F7"/>
<rect opacity="0.1" x="1170" y="100" width="100" height="100" rx="16" fill="#1F1F22" stroke="#A855F7"/>
<rect opacity="0.1" x="1170" y="200" width="100" height="100" rx="16" fill="#1F1F22" stroke="#A855F7"/>
<g opacity="0.35">
<rect x="1170" y="300" width="100" height="100" rx="16" fill="url(#paint3_radial_3644_55096)"/>
<rect x="1170.5" y="300.5" width="99" height="99" rx="15.5" stroke="#A855F7" stroke-opacity="0.65"/>
</g>
<rect opacity="0.1" x="1170" y="400" width="100" height="100" rx="16" fill="#1F1F22" stroke="#A855F7"/>
<rect opacity="0.1" x="1170" y="500" width="100" height="100" rx="16" fill="#1F1F22" stroke="#A855F7"/>
<rect opacity="0.1" x="1170" y="600" width="100" height="100" rx="16" fill="#1F1F22" stroke="#A855F7"/>
<rect opacity="0.1" x="1270" width="100" height="100" rx="16" fill="#1F1F22" stroke="#A855F7"/>
<rect opacity="0.1" x="1270" y="100" width="100" height="100" rx="16" fill="#1F1F22" stroke="#A855F7"/>
<rect opacity="0.1" x="1270" y="200" width="100" height="100" rx="16" fill="#1F1F22" stroke="#A855F7"/>
<rect opacity="0.1" x="1270" y="300" width="100" height="100" rx="16" fill="#1F1F22" stroke="#A855F7"/>
<rect opacity="0.1" x="1270" y="400" width="100" height="100" rx="16" fill="#1F1F22" stroke="#A855F7"/>
<rect opacity="0.1" x="1270" y="500" width="100" height="100" rx="16" fill="#1F1F22" stroke="#A855F7"/>
<rect opacity="0.1" x="1270" y="600" width="100" height="100" rx="16" fill="#1F1F22" stroke="#A855F7"/>
<rect opacity="0.1" x="1370" width="100" height="100" rx="16" fill="#1F1F22" stroke="#A855F7"/>
<rect opacity="0.1" x="1370" y="100" width="100" height="100" rx="16" fill="#1F1F22" stroke="#A855F7"/>
<rect opacity="0.1" x="1370" y="200" width="100" height="100" rx="16" fill="#1F1F22" stroke="#A855F7"/>
<rect opacity="0.1" x="1370" y="300" width="100" height="100" rx="16" fill="#1F1F22" stroke="#A855F7"/>
<rect opacity="0.1" x="1370" y="400" width="100" height="100" rx="16" fill="#1F1F22" stroke="#A855F7"/>
<rect opacity="0.1" x="1370" y="500" width="100" height="100" rx="16" fill="#1F1F22" stroke="#A855F7"/>
<rect opacity="0.1" x="1370" y="600" width="100" height="100" rx="16" fill="#1F1F22" stroke="#A855F7"/>
<defs>
<radialGradient id="paint0_radial_3644_55096" cx="0" cy="0" r="1" gradientUnits="userSpaceOnUse" gradientTransform="translate(220 450) rotate(90) scale(68)">
<stop offset="0.412843" stop-color="#A855F7" stop-opacity="0"/>
<stop offset="1" stop-color="#A855F7" stop-opacity="0.22"/>
</radialGradient>
<radialGradient id="paint1_radial_3644_55096" cx="0" cy="0" r="1" gradientUnits="userSpaceOnUse" gradientTransform="translate(620 50) rotate(90) scale(68)">
<stop offset="0.412843" stop-color="#A855F7" stop-opacity="0"/>
<stop offset="1" stop-color="#A855F7" stop-opacity="0.22"/>
</radialGradient>
<radialGradient id="paint2_radial_3644_55096" cx="0" cy="0" r="1" gradientUnits="userSpaceOnUse" gradientTransform="translate(1120 50) rotate(90) scale(68)">
<stop offset="0.412843" stop-color="#A855F7" stop-opacity="0"/>
<stop offset="1" stop-color="#A855F7" stop-opacity="0.22"/>
</radialGradient>
<radialGradient id="paint3_radial_3644_55096" cx="0" cy="0" r="1" gradientUnits="userSpaceOnUse" gradientTransform="translate(1220 350) rotate(90) scale(68)">
<stop offset="0.412843" stop-color="#A855F7" stop-opacity="0"/>
<stop offset="1" stop-color="#A855F7" stop-opacity="0.22"/>
</radialGradient>
</defs>
</svg>
