<svg width="1440" height="568" viewBox="0 0 1440 568" fill="none" xmlns="http://www.w3.org/2000/svg">
<rect opacity="0.1" x="-30" y="-10" width="100" height="100" rx="16" fill="#1F1F22" stroke="#A855F7"/>
<rect opacity="0.1" x="-30" y="90" width="100" height="100" rx="16" fill="#1F1F22" stroke="#A855F7"/>
<rect opacity="0.1" x="-30" y="190" width="100" height="100" rx="16" fill="#1F1F22" stroke="#A855F7"/>
<rect opacity="0.1" x="-30" y="290" width="100" height="100" rx="16" fill="#1F1F22" stroke="#A855F7"/>
<rect opacity="0.1" x="-30" y="390" width="100" height="100" rx="16" fill="#1F1F22" stroke="#A855F7"/>
<rect opacity="0.1" x="-30" y="490" width="100" height="100" rx="16" fill="#1F1F22" stroke="#A855F7"/>
<rect opacity="0.1" x="70" y="-10" width="100" height="100" rx="16" fill="#1F1F22" stroke="#A855F7"/>
<rect opacity="0.1" x="70" y="90" width="100" height="100" rx="16" fill="#1F1F22" stroke="#A855F7"/>
<rect opacity="0.1" x="70" y="190" width="100" height="100" rx="16" fill="#1F1F22" stroke="#A855F7"/>
<rect opacity="0.1" x="70" y="290" width="100" height="100" rx="16" fill="#1F1F22" stroke="#A855F7"/>
<rect opacity="0.1" x="70" y="390" width="100" height="100" rx="16" fill="#1F1F22" stroke="#A855F7"/>
<rect opacity="0.1" x="70" y="490" width="100" height="100" rx="16" fill="#1F1F22" stroke="#A855F7"/>
<rect opacity="0.1" x="170" y="-10" width="100" height="100" rx="16" fill="#1F1F22" stroke="#A855F7"/>
<rect opacity="0.1" x="170" y="90" width="100" height="100" rx="16" fill="#1F1F22" stroke="#A855F7"/>
<rect opacity="0.1" x="170" y="190" width="100" height="100" rx="16" fill="#1F1F22" stroke="#A855F7"/>
<rect opacity="0.1" x="170" y="290" width="100" height="100" rx="16" fill="#1F1F22" stroke="#A855F7"/>
<rect opacity="0.1" x="170" y="390" width="100" height="100" rx="16" fill="#1F1F22" stroke="#A855F7"/>
<rect opacity="0.1" x="170" y="490" width="100" height="100" rx="16" fill="#1F1F22" stroke="#A855F7"/>
<rect opacity="0.1" x="270.5" y="-9.5" width="99" height="99" rx="15.5" fill="#1F1F22" stroke="#A855F7"/>
<rect opacity="0.1" x="270" y="90" width="100" height="100" rx="16" fill="#1F1F22" stroke="#A855F7"/>
<rect opacity="0.1" x="270" y="190" width="100" height="100" rx="16" fill="#1F1F22" stroke="#A855F7"/>
<rect opacity="0.1" x="270" y="290" width="100" height="100" rx="16" fill="#1F1F22" stroke="#A855F7"/>
<rect opacity="0.1" x="270" y="390" width="100" height="100" rx="16" fill="#1F1F22" stroke="#A855F7"/>
<rect opacity="0.1" x="270" y="490" width="100" height="100" rx="16" fill="#1F1F22" stroke="#A855F7"/>
<rect opacity="0.1" x="370" y="-10" width="100" height="100" rx="16" fill="#1F1F22" stroke="#A855F7"/>
<rect opacity="0.1" x="370" y="90" width="100" height="100" rx="16" fill="#1F1F22" stroke="#A855F7"/>
<rect opacity="0.1" x="370" y="190" width="100" height="100" rx="16" fill="#1F1F22" stroke="#A855F7"/>
<rect opacity="0.1" x="370" y="290" width="100" height="100" rx="16" fill="#1F1F22" stroke="#A855F7"/>
<rect opacity="0.1" x="370" y="390" width="100" height="100" rx="16" fill="#1F1F22" stroke="#A855F7"/>
<rect opacity="0.1" x="370" y="490" width="100" height="100" rx="16" fill="#1F1F22" stroke="#A855F7"/>
<rect opacity="0.1" x="470" y="-10" width="100" height="100" rx="16" fill="#1F1F22" stroke="#A855F7"/>
<rect opacity="0.1" x="470" y="90" width="100" height="100" rx="16" fill="#1F1F22" stroke="#A855F7"/>
<rect opacity="0.1" x="470" y="190" width="100" height="100" rx="16" fill="#1F1F22" stroke="#A855F7"/>
<rect opacity="0.1" x="470" y="290" width="100" height="100" rx="16" fill="#1F1F22" stroke="#A855F7"/>
<rect opacity="0.1" x="470" y="390" width="100" height="100" rx="16" fill="#1F1F22" stroke="#A855F7"/>
<rect opacity="0.1" x="470" y="490" width="100" height="100" rx="16" fill="#1F1F22" stroke="#A855F7"/>
<rect opacity="0.1" x="570" y="-10" width="100" height="100" rx="16" fill="#1F1F22" stroke="#A855F7"/>
<rect opacity="0.1" x="570" y="90" width="100" height="100" rx="16" fill="#1F1F22" stroke="#A855F7"/>
<rect opacity="0.1" x="570" y="190" width="100" height="100" rx="16" fill="#1F1F22" stroke="#A855F7"/>
<g opacity="0.35">
<rect x="570" y="290" width="100" height="100" rx="16" fill="url(#paint0_radial_3644_56477)"/>
<rect x="570.5" y="290.5" width="99" height="99" rx="15.5" stroke="#A855F7" stroke-opacity="0.65"/>
</g>
<rect opacity="0.1" x="570" y="390" width="100" height="100" rx="16" fill="#1F1F22" stroke="#A855F7"/>
<rect opacity="0.1" x="570" y="490" width="100" height="100" rx="16" fill="#1F1F22" stroke="#A855F7"/>
<rect opacity="0.1" x="670" y="-10" width="100" height="100" rx="16" fill="#1F1F22" stroke="#A855F7"/>
<rect opacity="0.1" x="670" y="90" width="100" height="100" rx="16" fill="#1F1F22" stroke="#A855F7"/>
<rect opacity="0.1" x="670" y="190" width="100" height="100" rx="16" fill="#1F1F22" stroke="#A855F7"/>
<rect opacity="0.1" x="670" y="290" width="100" height="100" rx="16" fill="#1F1F22" stroke="#A855F7"/>
<rect opacity="0.1" x="670" y="390" width="100" height="100" rx="16" fill="#1F1F22" stroke="#A855F7"/>
<rect opacity="0.1" x="670" y="490" width="100" height="100" rx="16" fill="#1F1F22" stroke="#A855F7"/>
<rect opacity="0.1" x="770" y="-10" width="100" height="100" rx="16" fill="#1F1F22" stroke="#A855F7"/>
<rect opacity="0.1" x="770" y="90" width="100" height="100" rx="16" fill="#1F1F22" stroke="#A855F7"/>
<rect opacity="0.1" x="770" y="190" width="100" height="100" rx="16" fill="#1F1F22" stroke="#A855F7"/>
<rect opacity="0.1" x="770" y="290" width="100" height="100" rx="16" fill="#1F1F22" stroke="#A855F7"/>
<rect opacity="0.1" x="770" y="390" width="100" height="100" rx="16" fill="#1F1F22" stroke="#A855F7"/>
<rect opacity="0.1" x="770" y="490" width="100" height="100" rx="16" fill="#1F1F22" stroke="#A855F7"/>
<rect opacity="0.1" x="870" y="-10" width="100" height="100" rx="16" fill="#1F1F22" stroke="#A855F7"/>
<rect opacity="0.1" x="870" y="90" width="100" height="100" rx="16" fill="#1F1F22" stroke="#A855F7"/>
<rect opacity="0.1" x="870" y="190" width="100" height="100" rx="16" fill="#1F1F22" stroke="#A855F7"/>
<rect opacity="0.1" x="870" y="290" width="100" height="100" rx="16" fill="#1F1F22" stroke="#A855F7"/>
<rect opacity="0.1" x="870" y="390" width="100" height="100" rx="16" fill="#1F1F22" stroke="#A855F7"/>
<rect opacity="0.1" x="870" y="490" width="100" height="100" rx="16" fill="#1F1F22" stroke="#A855F7"/>
<rect opacity="0.1" x="970" y="-10" width="100" height="100" rx="16" fill="#1F1F22" stroke="#A855F7"/>
<rect opacity="0.1" x="970" y="90" width="100" height="100" rx="16" fill="#1F1F22" stroke="#A855F7"/>
<rect opacity="0.1" x="970" y="190" width="100" height="100" rx="16" fill="#1F1F22" stroke="#A855F7"/>
<rect opacity="0.1" x="970" y="290" width="100" height="100" rx="16" fill="#1F1F22" stroke="#A855F7"/>
<rect opacity="0.1" x="970" y="390" width="100" height="100" rx="16" fill="#1F1F22" stroke="#A855F7"/>
<rect opacity="0.1" x="970" y="490" width="100" height="100" rx="16" fill="#1F1F22" stroke="#A855F7"/>
<rect opacity="0.1" x="1070" y="-10" width="100" height="100" rx="16" fill="#1F1F22" stroke="#A855F7"/>
<rect opacity="0.1" x="1070" y="90" width="100" height="100" rx="16" fill="#1F1F22" stroke="#A855F7"/>
<rect opacity="0.1" x="1070" y="190" width="100" height="100" rx="16" fill="#1F1F22" stroke="#A855F7"/>
<rect opacity="0.1" x="1070" y="290" width="100" height="100" rx="16" fill="#1F1F22" stroke="#A855F7"/>
<rect opacity="0.1" x="1070" y="390" width="100" height="100" rx="16" fill="#1F1F22" stroke="#A855F7"/>
<rect opacity="0.1" x="1070" y="490" width="100" height="100" rx="16" fill="#1F1F22" stroke="#A855F7"/>
<rect opacity="0.1" x="1170" y="-10" width="100" height="100" rx="16" fill="#1F1F22" stroke="#A855F7"/>
<rect opacity="0.1" x="1170" y="90" width="100" height="100" rx="16" fill="#1F1F22" stroke="#A855F7"/>
<rect opacity="0.1" x="1170" y="190" width="100" height="100" rx="16" fill="#1F1F22" stroke="#A855F7"/>
<rect opacity="0.1" x="1170" y="290" width="100" height="100" rx="16" fill="#1F1F22" stroke="#A855F7"/>
<rect opacity="0.1" x="1170" y="390" width="100" height="100" rx="16" fill="#1F1F22" stroke="#A855F7"/>
<rect opacity="0.1" x="1170" y="490" width="100" height="100" rx="16" fill="#1F1F22" stroke="#A855F7"/>
<rect opacity="0.1" x="1270" y="-10" width="100" height="100" rx="16" fill="#1F1F22" stroke="#A855F7"/>
<rect opacity="0.1" x="1270" y="90" width="100" height="100" rx="16" fill="#1F1F22" stroke="#A855F7"/>
<rect opacity="0.1" x="1270" y="190" width="100" height="100" rx="16" fill="#1F1F22" stroke="#A855F7"/>
<rect opacity="0.1" x="1270" y="290" width="100" height="100" rx="16" fill="#1F1F22" stroke="#A855F7"/>
<g opacity="0.35">
<rect x="1270" y="390" width="100" height="100" rx="16" fill="url(#paint1_radial_3644_56477)"/>
<rect x="1270.5" y="390.5" width="99" height="99" rx="15.5" stroke="#A855F7" stroke-opacity="0.65"/>
</g>
<rect opacity="0.1" x="1270" y="490" width="100" height="100" rx="16" fill="#1F1F22" stroke="#A855F7"/>
<rect opacity="0.1" x="1370" y="-10" width="100" height="100" rx="16" fill="#1F1F22" stroke="#A855F7"/>
<rect opacity="0.1" x="1370" y="90" width="100" height="100" rx="16" fill="#1F1F22" stroke="#A855F7"/>
<rect opacity="0.1" x="1370" y="190" width="100" height="100" rx="16" fill="#1F1F22" stroke="#A855F7"/>
<rect opacity="0.1" x="1370" y="290" width="100" height="100" rx="16" fill="#1F1F22" stroke="#A855F7"/>
<rect opacity="0.1" x="1370" y="390" width="100" height="100" rx="16" fill="#1F1F22" stroke="#A855F7"/>
<rect opacity="0.1" x="1370" y="490" width="100" height="100" rx="16" fill="#1F1F22" stroke="#A855F7"/>
<defs>
<radialGradient id="paint0_radial_3644_56477" cx="0" cy="0" r="1" gradientUnits="userSpaceOnUse" gradientTransform="translate(620 340) rotate(90) scale(68)">
<stop offset="0.412843" stop-color="#A855F7" stop-opacity="0"/>
<stop offset="1" stop-color="#A855F7" stop-opacity="0.22"/>
</radialGradient>
<radialGradient id="paint1_radial_3644_56477" cx="0" cy="0" r="1" gradientUnits="userSpaceOnUse" gradientTransform="translate(1320 440) rotate(90) scale(68)">
<stop offset="0.412843" stop-color="#A855F7" stop-opacity="0"/>
<stop offset="1" stop-color="#A855F7" stop-opacity="0.22"/>
</radialGradient>
</defs>
</svg>
