<?xml version="1.0" encoding="utf-8"?>
<!-- Generator: Adobe Illustrator 23.1.0, SVG Export Plug-In . SVG Version: 6.00 Build 0)  -->
<svg version="1.1" id="Слой_1" xmlns="http://www.w3.org/2000/svg" xmlns:xlink="http://www.w3.org/1999/xlink" x="0px" y="0px"
	 viewBox="0 0 28 28" style="enable-background:new 0 0 28 28;" xml:space="preserve">
<style type="text/css">
	.st0{fill:#1812FF;}
	.st1{fill:#1812FF;filter:url(#Adobe_OpacityMaskFilter);}
	.st2{mask:url(#mask0_187_4995_1_);}
	.st3{fill:#3CD1EE;}
	.st4{fill:#CB19EA;}
	.st5{fill:#1812FF;filter:url(#Adobe_OpacityMaskFilter_1_);}
	.st6{mask:url(#mask1_187_4995_1_);}
	.st7{fill:#FF0833;}
</style>
<g>
	<path class="st0" d="M13.8,26c6.6,0,12-5.3,12.1-11.9c0-1.3-0.2-2.6-0.6-3.8c-2.8,0.2-5.6,1.4-7.8,3.6c-2.4,2.4-3.6,5.4-3.6,8.5
		c0,0.2-0.3,0.3-0.4,0.1c-1.5-2.3-4.2-3.8-7.2-3.8c-1.1,0-2.2,0.2-3.2,0.6C5.1,23.3,9.1,26,13.8,26z"/>
	<path class="st0" d="M13.9,5.6c0-0.2,0.3-0.3,0.4-0.1c1.5,2.3,4.2,3.8,7.2,3.8c1.1,0,2.2-0.2,3.2-0.6c-2-3.9-6-6.7-10.7-6.7
		C7.3,2,1.9,7.3,1.9,13.9c0,1.3,0.2,2.6,0.6,3.8c2.8-0.2,5.6-1.4,7.8-3.6C12.6,11.7,13.8,8.7,13.9,5.6L13.9,5.6z"/>
	<defs>
		<filter id="Adobe_OpacityMaskFilter" filterUnits="userSpaceOnUse" x="-8" y="-1.9" width="45" height="38">
			<feColorMatrix  type="matrix" values="1 0 0 0 0  0 1 0 0 0  0 0 1 0 0  0 0 0 1 0"/>
		</filter>
	</defs>
	<mask maskUnits="userSpaceOnUse" x="-8" y="-1.9" width="45" height="38" id="mask0_187_4995_1_">
		<path class="st1" d="M13.8,26c6.6,0,12-5.3,12.1-11.9c0-1.3-0.2-2.6-0.6-3.8c-2.8,0.2-5.6,1.4-7.8,3.6c-2.4,2.4-3.6,5.4-3.6,8.5
			c0,0.2-0.3,0.3-0.4,0.1c-1.5-2.3-4.2-3.8-7.2-3.8c-1.1,0-2.2,0.2-3.2,0.6C5.1,23.3,9.1,26,13.8,26z"/>
		<path class="st0" d="M13.9,5.6c0-0.2,0.3-0.3,0.4-0.1c1.5,2.3,4.2,3.8,7.2,3.8c1.1,0,2.2-0.2,3.2-0.6c-2-3.9-6-6.7-10.7-6.7
			C7.3,2,1.9,7.3,1.9,13.9c0,1.3,0.2,2.6,0.6,3.8c2.8-0.2,5.6-1.4,7.8-3.6C12.6,11.7,13.8,8.7,13.9,5.6L13.9,5.6z"/>
	</mask>
	<g class="st2">
		<g>
			<ellipse class="st3" cx="4.2" cy="10.3" rx="12.2" ry="12.2"/>
		</g>
		<g>
			<ellipse class="st4" cx="23" cy="22.1" rx="13.9" ry="14"/>
		</g>
	</g>
	<defs>
		<filter id="Adobe_OpacityMaskFilter_1_" filterUnits="userSpaceOnUse" x="18.5" y="5.2" width="14.5" height="15.3">
			<feColorMatrix  type="matrix" values="1 0 0 0 0  0 1 0 0 0  0 0 1 0 0  0 0 0 1 0"/>
		</filter>
	</defs>
	<mask maskUnits="userSpaceOnUse" x="18.5" y="5.2" width="14.5" height="15.3" id="mask1_187_4995_1_">
		<path class="st5" d="M13.8,26c6.6,0,12-5.3,12.1-11.9c0-1.3-0.2-2.6-0.6-3.8c-2.8,0.2-5.6,1.4-7.8,3.6c-2.4,2.4-3.6,5.4-3.6,8.5
			c0,0.2-0.3,0.3-0.4,0.1c-1.5-2.3-4.2-3.8-7.2-3.8c-1.1,0-2.2,0.2-3.2,0.6C5.1,23.3,9.1,26,13.8,26z"/>
	</mask>
	<g class="st6">
		<g>
			<ellipse class="st7" cx="25.8" cy="12.8" rx="7.3" ry="7.6"/>
		</g>
	</g>
</g>
</svg>
