<svg width="252" height="200" viewBox="0 0 252 200" fill="none" xmlns="http://www.w3.org/2000/svg">
<rect y="-65" width="330" height="330" rx="165" fill="#3DD69E" fill-opacity="0.05"/>
<rect x="50" y="-15" width="230" height="230" rx="115" fill="#3DD69E" fill-opacity="0.1"/>
<rect x="90" y="25" width="150" height="150" rx="75" fill="#3DD69E" fill-opacity="0.2"/>
<rect x="120" y="55" width="90" height="90" rx="45" fill="#3DD69E"/>
<path d="M147.804 93.1818L151.809 100.81L155.914 93.1818H162.122L155.801 104.091L162.292 115H156.113L151.809 107.457L147.576 115H141.326L147.804 104.091L141.554 93.1818H147.804ZM176.412 115.398C174.29 115.398 172.401 115.033 170.744 114.304C169.096 113.565 167.794 112.552 166.838 111.264C165.891 109.967 165.403 108.471 165.375 106.776H171.568C171.606 107.486 171.838 108.111 172.264 108.651C172.699 109.181 173.277 109.593 173.997 109.886C174.717 110.18 175.526 110.327 176.426 110.327C177.363 110.327 178.192 110.161 178.912 109.83C179.631 109.498 180.195 109.039 180.602 108.452C181.009 107.865 181.213 107.187 181.213 106.42C181.213 105.644 180.995 104.957 180.559 104.361C180.133 103.755 179.518 103.281 178.713 102.94C177.917 102.599 176.97 102.429 175.872 102.429H173.159V97.9119H175.872C176.8 97.9119 177.619 97.7509 178.329 97.429C179.049 97.107 179.608 96.6619 180.005 96.0938C180.403 95.5161 180.602 94.8438 180.602 94.0767C180.602 93.3475 180.427 92.7083 180.076 92.1591C179.735 91.6004 179.252 91.1648 178.627 90.8523C178.012 90.5398 177.292 90.3835 176.468 90.3835C175.635 90.3835 174.873 90.535 174.181 90.8381C173.49 91.1316 172.936 91.553 172.52 92.1023C172.103 92.6515 171.88 93.2955 171.852 94.0341H165.957C165.985 92.358 166.464 90.8807 167.392 89.6023C168.32 88.3239 169.57 87.3248 171.142 86.6051C172.723 85.8759 174.508 85.5114 176.497 85.5114C178.504 85.5114 180.261 85.8759 181.767 86.6051C183.272 87.3343 184.442 88.3191 185.275 89.5597C186.118 90.7907 186.535 92.1733 186.525 93.7074C186.535 95.3362 186.028 96.6951 185.005 97.7841C183.992 98.8731 182.671 99.5644 181.042 99.858V100.085C183.182 100.36 184.811 101.103 185.929 102.315C187.056 103.518 187.614 105.024 187.605 106.832C187.614 108.49 187.136 109.962 186.17 111.25C185.214 112.538 183.893 113.551 182.207 114.29C180.521 115.028 178.59 115.398 176.412 115.398Z" fill="#09090B"/>
<path d="M147.804 93.1818L151.809 100.81L155.914 93.1818H162.122L155.801 104.091L162.292 115H156.113L151.809 107.457L147.576 115H141.326L147.804 104.091L141.554 93.1818H147.804ZM176.412 115.398C174.29 115.398 172.401 115.033 170.744 114.304C169.096 113.565 167.794 112.552 166.838 111.264C165.891 109.967 165.403 108.471 165.375 106.776H171.568C171.606 107.486 171.838 108.111 172.264 108.651C172.699 109.181 173.277 109.593 173.997 109.886C174.717 110.18 175.526 110.327 176.426 110.327C177.363 110.327 178.192 110.161 178.912 109.83C179.631 109.498 180.195 109.039 180.602 108.452C181.009 107.865 181.213 107.187 181.213 106.42C181.213 105.644 180.995 104.957 180.559 104.361C180.133 103.755 179.518 103.281 178.713 102.94C177.917 102.599 176.97 102.429 175.872 102.429H173.159V97.9119H175.872C176.8 97.9119 177.619 97.7509 178.329 97.429C179.049 97.107 179.608 96.6619 180.005 96.0938C180.403 95.5161 180.602 94.8438 180.602 94.0767C180.602 93.3475 180.427 92.7083 180.076 92.1591C179.735 91.6004 179.252 91.1648 178.627 90.8523C178.012 90.5398 177.292 90.3835 176.468 90.3835C175.635 90.3835 174.873 90.535 174.181 90.8381C173.49 91.1316 172.936 91.553 172.52 92.1023C172.103 92.6515 171.88 93.2955 171.852 94.0341H165.957C165.985 92.358 166.464 90.8807 167.392 89.6023C168.32 88.3239 169.57 87.3248 171.142 86.6051C172.723 85.8759 174.508 85.5114 176.497 85.5114C178.504 85.5114 180.261 85.8759 181.767 86.6051C183.272 87.3343 184.442 88.3191 185.275 89.5597C186.118 90.7907 186.535 92.1733 186.525 93.7074C186.535 95.3362 186.028 96.6951 185.005 97.7841C183.992 98.8731 182.671 99.5644 181.042 99.858V100.085C183.182 100.36 184.811 101.103 185.929 102.315C187.056 103.518 187.614 105.024 187.605 106.832C187.614 108.49 187.136 109.962 186.17 111.25C185.214 112.538 183.893 113.551 182.207 114.29C180.521 115.028 178.59 115.398 176.412 115.398Z" fill="black" fill-opacity="0.2"/>
<path d="M147.804 93.1818L151.809 100.81L155.914 93.1818H162.122L155.801 104.091L162.292 115H156.113L151.809 107.457L147.576 115H141.326L147.804 104.091L141.554 93.1818H147.804ZM176.412 115.398C174.29 115.398 172.401 115.033 170.744 114.304C169.096 113.565 167.794 112.552 166.838 111.264C165.891 109.967 165.403 108.471 165.375 106.776H171.568C171.606 107.486 171.838 108.111 172.264 108.651C172.699 109.181 173.277 109.593 173.997 109.886C174.717 110.18 175.526 110.327 176.426 110.327C177.363 110.327 178.192 110.161 178.912 109.83C179.631 109.498 180.195 109.039 180.602 108.452C181.009 107.865 181.213 107.187 181.213 106.42C181.213 105.644 180.995 104.957 180.559 104.361C180.133 103.755 179.518 103.281 178.713 102.94C177.917 102.599 176.97 102.429 175.872 102.429H173.159V97.9119H175.872C176.8 97.9119 177.619 97.7509 178.329 97.429C179.049 97.107 179.608 96.6619 180.005 96.0938C180.403 95.5161 180.602 94.8438 180.602 94.0767C180.602 93.3475 180.427 92.7083 180.076 92.1591C179.735 91.6004 179.252 91.1648 178.627 90.8523C178.012 90.5398 177.292 90.3835 176.468 90.3835C175.635 90.3835 174.873 90.535 174.181 90.8381C173.49 91.1316 172.936 91.553 172.52 92.1023C172.103 92.6515 171.88 93.2955 171.852 94.0341H165.957C165.985 92.358 166.464 90.8807 167.392 89.6023C168.32 88.3239 169.57 87.3248 171.142 86.6051C172.723 85.8759 174.508 85.5114 176.497 85.5114C178.504 85.5114 180.261 85.8759 181.767 86.6051C183.272 87.3343 184.442 88.3191 185.275 89.5597C186.118 90.7907 186.535 92.1733 186.525 93.7074C186.535 95.3362 186.028 96.6951 185.005 97.7841C183.992 98.8731 182.671 99.5644 181.042 99.858V100.085C183.182 100.36 184.811 101.103 185.929 102.315C187.056 103.518 187.614 105.024 187.605 106.832C187.614 108.49 187.136 109.962 186.17 111.25C185.214 112.538 183.893 113.551 182.207 114.29C180.521 115.028 178.59 115.398 176.412 115.398Z" fill="black" fill-opacity="0.2"/>
</svg>
