<svg width="252" height="200" viewBox="0 0 252 200" fill="none" xmlns="http://www.w3.org/2000/svg">
<rect y="-65" width="330" height="330" rx="165" fill="#A855F7" fill-opacity="0.05"/>
<rect x="50" y="-15" width="230" height="230" rx="115" fill="#A855F7" fill-opacity="0.1"/>
<rect x="90" y="25" width="150" height="150" rx="75" fill="#A855F7" fill-opacity="0.2"/>
<rect x="120" y="55" width="90" height="90" rx="45" fill="#A855F7"/>
<path d="M148.097 93.1818L152.102 100.81L156.207 93.1818H162.415L156.094 104.091L162.585 115H156.406L152.102 107.457L147.869 115H141.619L148.097 104.091L141.847 93.1818H148.097ZM176.577 115.398C174.569 115.398 172.779 115.028 171.207 114.29C169.645 113.551 168.404 112.533 167.486 111.236C166.567 109.938 166.089 108.452 166.051 106.776H172.017C172.083 107.902 172.557 108.816 173.438 109.517C174.318 110.218 175.365 110.568 176.577 110.568C177.543 110.568 178.395 110.355 179.134 109.929C179.882 109.493 180.464 108.892 180.881 108.125C181.307 107.348 181.52 106.458 181.52 105.455C181.52 104.432 181.302 103.532 180.866 102.756C180.44 101.979 179.848 101.373 179.091 100.938C178.333 100.502 177.467 100.279 176.491 100.27C175.639 100.27 174.811 100.445 174.006 100.795C173.21 101.146 172.59 101.624 172.145 102.23L166.676 101.25L168.054 85.9091H185.838V90.9375H173.125L172.372 98.2244H172.543C173.054 97.5047 173.826 96.9081 174.858 96.4347C175.89 95.9612 177.045 95.7244 178.324 95.7244C180.076 95.7244 181.638 96.1364 183.011 96.9602C184.384 97.7841 185.469 98.9157 186.264 100.355C187.06 101.785 187.453 103.433 187.443 105.298C187.453 107.259 186.998 109.001 186.08 110.526C185.17 112.041 183.897 113.234 182.259 114.105C180.63 114.967 178.736 115.398 176.577 115.398Z" fill="white"/>
</svg>
