<svg xmlns="http://www.w3.org/2000/svg" width="24" height="24" stroke="#000" stroke-linecap="round" stroke-linejoin="round" fill="#fff" fill-rule="evenodd"><defs><linearGradient id="A" x1="8.44%" y1="102.38%" x2="88.11%" y2="-3.43%"><stop offset="8%" stop-color="#9945ff"/><stop offset="30%" stop-color="#8752f3"/><stop offset="50%" stop-color="#5497d5"/><stop offset="60%" stop-color="#43b4ca"/><stop offset="72%" stop-color="#28e0b9"/><stop offset="97%" stop-color="#19fb9b"/></linearGradient></defs><path fill="#000" d="M-.5-.5h24v24h-24z"/><path d="M18.4296 15.3029l-2.2697 2.5227c-.0495.054-.11.0999-.176.1293s-.1375.0454-.209.0451H5.0134a.264.264 0 0 1-.1446-.045.27.27 0 0 1-.0973-.1192c-.0196-.0492-.0259-.1041-.0182-.1551s.033-.102.0674-.1407l2.2714-2.5235c.0494-.0541.1086-.1.1746-.1285a.524.524 0 0 1 .2101-.0459h10.7603c.0513 0 .1007.0164.1447.0438s.077.0714.0969.1212.0257.1032.0186.1542-.033.102-.0677.1416zm-2.2697-5.0834c-.0495-.0541-.11-.0982-.176-.1275a.497.497 0 0 0-.209-.0459H5.0134c-.0511 0-.1008.0153-.1446.0456s-.077.0704-.0973.1176a.309.309 0 0 0-.0182.1568c.0103.0523.033.1002.0674.139l2.2714 2.5245a.52.52 0 0 0 .1746.1275c.066.0306.1375.0459.2101.0459h10.7603c.0513 0 .1007-.0153.1447-.0447s.077-.0706.0969-.1185a.32.32 0 0 0 .0186-.1561c-.011-.053-.033-.1002-.0677-.1397l-2.2697-2.5245zM5.0134 8.4077h10.7615a.497.497 0 0 0 .209-.0459c.066-.0292.1265-.074.176-.1283l2.2697-2.5237c.0347-.0394.0567-.0885.0677-.1414s.0004-.1052-.0186-.1544-.0546-.0904-.0969-.1191-.0934-.0449-.1447-.0449H7.4768c-.0726.0008-.1441.0161-.2101.0449s-.1252.0746-.1746.1293l-2.271 2.5227c-.0348.0389-.0572.0885-.0668.1409a.289.289 0 0 0 .0187.1549c.0194.0491.0532.0899.0958.1191s.0935.0459.1446.0459z" stroke="none" fill="url(#A)" fill-rule="nonzero"/></svg>